<svg width="1440" height="1024" viewBox="0 0 1440 1024" fill="none" xmlns="http://www.w3.org/2000/svg">
<g clip-path="url(#clip0_5_29)">
<rect width="1440" height="1024" fill="white"/>
<rect width="1440" height="1024" fill="#FF6442" fill-opacity="0.4"/>
<g filter="url(#filter0_d_5_29)">
<path fill-rule="evenodd" clip-rule="evenodd" d="M1197.97 862.146C1198.34 922.619 1200.25 993.941 1151.98 1030.51C1104.62 1066.38 1039.72 1030.99 980.387 1026.97C921.291 1022.97 853.871 1047.73 810.583 1007.39C765.659 965.525 760.326 894.169 773.647 834.318C785.389 781.564 833.858 750.604 875.444 715.977C915.434 682.68 953.603 642.147 1005.69 641.104C1061.2 639.993 1113.66 668.647 1150.05 710.482C1186.25 752.105 1197.64 807.049 1197.97 862.146Z" fill="url(#paint0_linear_5_29)" fill-opacity="0.8" shape-rendering="crispEdges"/>
</g>
<g filter="url(#filter1_d_5_29)">
<path fill-rule="evenodd" clip-rule="evenodd" d="M239.713 519.481C235.495 514.973 230.652 511.745 226.369 507.299C220.066 500.755 210.11 496.343 208.774 487.362C207.383 478.012 212.078 467.622 219.619 461.924C226.915 456.413 237.094 459.184 246.244 459.055C253.729 458.949 261.533 457.545 268.046 461.24C274.371 464.829 277.098 472.067 280.503 478.49C283.897 484.891 287.411 491.179 287.754 498.412C288.154 506.843 286.742 515.216 282.592 522.563C277.438 531.689 271.989 545.611 261.523 544.859C250.118 544.039 247.527 527.829 239.713 519.481Z" fill="url(#paint1_linear_5_29)" fill-opacity="0.8" shape-rendering="crispEdges"/>
</g>
<g filter="url(#filter2_d_5_29)">
<path fill-rule="evenodd" clip-rule="evenodd" d="M975.325 30.8832C1005.46 11.5533 1043.2 0.821724 1077.11 12.7094C1109.42 24.0362 1121.03 60.5345 1140.51 88.7962C1162.87 121.232 1208.41 149.538 1197.4 187.229C1186.37 224.976 1132.17 222.118 1096.69 238.819C1066.76 252.912 1041.86 277.906 1008.76 276.037C968.418 273.759 921.713 263.476 902.289 227.842C883.034 192.518 906.18 150.991 920.116 113.411C932.095 81.1079 946.399 49.438 975.325 30.8832Z" fill="url(#paint2_linear_5_29)" fill-opacity="0.8" shape-rendering="crispEdges"/>
</g>
<g filter="url(#filter3_d_5_29)">
<path fill-rule="evenodd" clip-rule="evenodd" d="M88.9073 250.811C64.0917 176.786 78.9608 98.4599 109.016 26.407C144.268 -58.1027 182.53 -155.92 269.939 -183.179C358.522 -210.805 442.646 -145.099 525.599 -103.508C615.85 -58.2591 724.861 -28.8045 763.714 64.3852C805.589 164.82 782.329 283.253 725.551 376.073C670.414 466.21 576.133 536.881 470.678 543.439C376.838 549.274 311.059 463.69 236.432 406.488C177.448 361.277 112.53 321.279 88.9073 250.811Z" fill="url(#paint3_linear_5_29)" fill-opacity="0.8" shape-rendering="crispEdges"/>
</g>
</g>
<defs>
<filter id="filter0_d_5_29" x="751.258" y="621.073" width="462.821" height="437.359" filterUnits="userSpaceOnUse" color-interpolation-filters="sRGB">
<feFlood flood-opacity="0" result="BackgroundImageFix"/>
<feColorMatrix in="SourceAlpha" type="matrix" values="0 0 0 0 0 0 0 0 0 0 0 0 0 0 0 0 0 0 127 0" result="hardAlpha"/>
<feOffset dy="-4"/>
<feGaussianBlur stdDeviation="8"/>
<feComposite in2="hardAlpha" operator="out"/>
<feColorMatrix type="matrix" values="0 0 0 0 1 0 0 0 0 0.391833 0 0 0 0 0.258333 0 0 0 0.4 0"/>
<feBlend mode="normal" in2="BackgroundImageFix" result="effect1_dropShadow_5_29"/>
<feBlend mode="normal" in="SourceGraphic" in2="effect1_dropShadow_5_29" result="shape"/>
</filter>
<filter id="filter1_d_5_29" x="196.53" y="444.471" width="111.288" height="118.417" filterUnits="userSpaceOnUse" color-interpolation-filters="sRGB">
<feFlood flood-opacity="0" result="BackgroundImageFix"/>
<feColorMatrix in="SourceAlpha" type="matrix" values="0 0 0 0 0 0 0 0 0 0 0 0 0 0 0 0 0 0 127 0" result="hardAlpha"/>
<feOffset dx="4" dy="2"/>
<feGaussianBlur stdDeviation="8"/>
<feComposite in2="hardAlpha" operator="out"/>
<feColorMatrix type="matrix" values="0 0 0 0 1 0 0 0 0 0.391833 0 0 0 0 0.258333 0 0 0 0.4 0"/>
<feBlend mode="normal" in2="BackgroundImageFix" result="effect1_dropShadow_5_29"/>
<feBlend mode="normal" in="SourceGraphic" in2="effect1_dropShadow_5_29" result="shape"/>
</filter>
<filter id="filter2_d_5_29" x="878.949" y="-4.26813" width="336.14" height="300.405" filterUnits="userSpaceOnUse" color-interpolation-filters="sRGB">
<feFlood flood-opacity="0" result="BackgroundImageFix"/>
<feColorMatrix in="SourceAlpha" type="matrix" values="0 0 0 0 0 0 0 0 0 0 0 0 0 0 0 0 0 0 127 0" result="hardAlpha"/>
<feOffset dy="4"/>
<feGaussianBlur stdDeviation="8"/>
<feComposite in2="hardAlpha" operator="out"/>
<feColorMatrix type="matrix" values="0 0 0 0 1 0 0 0 0 0.391833 0 0 0 0 0.258333 0 0 0 0.4 0"/>
<feBlend mode="normal" in2="BackgroundImageFix" result="effect1_dropShadow_5_29"/>
<feBlend mode="normal" in="SourceGraphic" in2="effect1_dropShadow_5_29" result="shape"/>
</filter>
<filter id="filter3_d_5_29" x="60.3846" y="-201.758" width="740.717" height="765.48" filterUnits="userSpaceOnUse" color-interpolation-filters="sRGB">
<feFlood flood-opacity="0" result="BackgroundImageFix"/>
<feColorMatrix in="SourceAlpha" type="matrix" values="0 0 0 0 0 0 0 0 0 0 0 0 0 0 0 0 0 0 127 0" result="hardAlpha"/>
<feOffset dy="4"/>
<feGaussianBlur stdDeviation="8"/>
<feComposite in2="hardAlpha" operator="out"/>
<feColorMatrix type="matrix" values="0 0 0 0 1 0 0 0 0 0.391833 0 0 0 0 0.258333 0 0 0 0.4 0"/>
<feBlend mode="normal" in2="BackgroundImageFix" result="effect1_dropShadow_5_29"/>
<feBlend mode="normal" in="SourceGraphic" in2="effect1_dropShadow_5_29" result="shape"/>
</filter>
<linearGradient id="paint0_linear_5_29" x1="1120.95" y1="1004.09" x2="965.553" y2="635.145" gradientUnits="userSpaceOnUse">
<stop stop-color="#FF1A95"/>
<stop offset="1" stop-color="#FF6442"/>
</linearGradient>
<linearGradient id="paint1_linear_5_29" x1="206.174" y1="504.486" x2="289.112" y2="497.749" gradientUnits="userSpaceOnUse">
<stop stop-color="#FF1A95"/>
<stop offset="1" stop-color="#FF6442"/>
</linearGradient>
<linearGradient id="paint2_linear_5_29" x1="1078.35" y1="19.5405" x2="945.852" y2="263.038" gradientUnits="userSpaceOnUse">
<stop stop-color="#FF1A95"/>
<stop offset="1" stop-color="#FF6442"/>
</linearGradient>
<linearGradient id="paint3_linear_5_29" x1="123.085" y1="-55.9993" x2="650.049" y2="456.886" gradientUnits="userSpaceOnUse">
<stop stop-color="#FF1A95"/>
<stop offset="1" stop-color="#FF6442"/>
</linearGradient>
<clipPath id="clip0_5_29">
<rect width="1440" height="1024" fill="white"/>
</clipPath>
</defs>
</svg>
