<svg width="121" height="121" viewBox="0 0 121 121" fill="none" xmlns="http://www.w3.org/2000/svg">
<path fill-rule="evenodd" clip-rule="evenodd" d="M15.719 82.681C13.3807 85.029 13.3843 88.8322 15.7271 91.1757L30.0547 105.508C32.3974 107.851 36.1922 107.848 38.5305 105.5L118.276 25.4259C120.614 23.0779 120.61 19.2747 118.268 16.9312L103.94 2.59903C101.597 0.255514 97.8024 0.259122 95.464 2.60708L15.719 82.681ZM0.171855 115.793C-0.625525 118.769 2.08893 121.494 5.05964 120.701L22.3161 116.092C25.2888 115.298 26.2885 111.576 24.1152 109.393L11.4906 96.7167C9.31723 94.5344 5.60166 95.5292 4.80374 98.507L0.171855 115.793Z" fill="url(#paint0_linear_37_43)"/>
<defs>
<linearGradient id="paint0_linear_37_43" x1="70.8496" y1="121.668" x2="81.7901" y2="9.5329" gradientUnits="userSpaceOnUse">
<stop stop-color="#FF1A95"/>
<stop offset="1" stop-color="#FF6442"/>
</linearGradient>
</defs>
</svg>
