<svg width="120" height="120" viewBox="0 0 120 120" fill="none" xmlns="http://www.w3.org/2000/svg">
<path fill-rule="evenodd" clip-rule="evenodd" d="M63.7366 4.55694C63.7455 4.44537 63.75 4.33259 63.75 4.21875C63.75 1.8888 61.8612 0 59.5312 0C57.2013 0 55.3125 1.8888 55.3125 4.21875C55.3125 4.33259 55.317 4.44537 55.3258 4.55694H36.0136C34.421 4.55694 32.8938 5.1901 31.7684 6.31693L27.571 10.5195C23.7949 14.3003 26.4727 20.7595 31.8163 20.7595H60.6254H88.7589C93.9342 20.7595 96.6817 14.6463 93.2458 10.776L89.5148 6.57352C88.3762 5.29092 86.743 4.55694 85.0279 4.55694H63.7366ZM92.779 26.8354C97.6838 26.8354 101.434 31.2088 100.685 36.0561L88.7713 113.221C88.169 117.121 84.8119 120 80.8649 120H60.6254H40.2564C36.3663 120 33.0401 117.202 32.3744 113.369L18.9711 36.2045C18.1213 31.3121 21.8874 26.8354 26.8531 26.8354H60.6254H92.779Z" fill="url(#paint0_linear_37_50)"/>
<defs>
<linearGradient id="paint0_linear_37_50" x1="67.2038" y1="120.828" x2="83.0573" y2="9.88744" gradientUnits="userSpaceOnUse">
<stop stop-color="#FF1A95"/>
<stop offset="1" stop-color="#FF6442"/>
</linearGradient>
</defs>
</svg>
